<svg id="Layer_1" data-name="Layer 1" xmlns="http://www.w3.org/2000/svg" viewBox="0 0 750 500"><defs><style>.cls-1{fill:#231916;}</style></defs><title>Untitled-1</title><rect class="cls-1" x="187.56" y="85.48" width="12.44" height="59.98"/><rect class="cls-1" y="85.48" width="12.44" height="59.98"/><rect class="cls-1" x="51.55" y="73.32" width="23.11" height="9.33"/><rect class="cls-1" x="51.55" y="103.87" width="23.11" height="9.33"/><rect class="cls-1" x="43.67" y="81.06" width="8.55" height="24.31"/><rect class="cls-1" x="73.65" y="81.06" width="8.55" height="24.31"/><rect class="cls-1" x="69.3" y="133.75" width="55.04" height="9.33"/><rect class="cls-1" x="124.17" y="123.32" width="10.89" height="10.89"/><rect class="cls-1" x="54.44" y="95.27" width="10.11" height="10.11"/><rect class="cls-1" x="61.88" y="87.83" width="10.11" height="10.11"/><rect class="cls-1" x="110.16" y="73.32" width="23.11" height="9.33"/><rect class="cls-1" x="110.16" y="103.87" width="23.11" height="9.33"/><rect class="cls-1" x="102.28" y="81.06" width="8.55" height="24.31"/><rect class="cls-1" x="132.25" y="81.06" width="8.55" height="24.31"/><rect class="cls-1" x="113.05" y="95.27" width="10.11" height="10.11"/><rect class="cls-1" x="120.49" y="87.83" width="10.11" height="10.11"/><rect class="cls-1" x="61.26" y="25.78" width="77.49" height="12.44"/><rect class="cls-1" x="36.78" y="37.68" width="24.47" height="12.44"/><rect class="cls-1" x="24.34" y="49.57" width="12.44" height="12.44"/><rect class="cls-1" x="11.89" y="61.47" width="12.44" height="24.56"/><rect class="cls-1" x="138.74" y="37.68" width="24.47" height="12.44"/><rect class="cls-1" x="163.22" y="49.57" width="12.44" height="12.44"/><rect class="cls-1" x="175.66" y="61.47" width="12.44" height="24.56"/><rect class="cls-1" x="61.26" y="192.71" width="77.49" height="12.44"/><rect class="cls-1" x="36.78" y="180.82" width="24.47" height="12.44"/><rect class="cls-1" x="24.34" y="168.92" width="12.44" height="12.44"/><rect class="cls-1" x="11.89" y="144.91" width="12.44" height="24.56"/><rect class="cls-1" x="138.74" y="180.82" width="24.47" height="12.44"/><rect class="cls-1" x="163.22" y="168.92" width="12.44" height="12.44"/><rect class="cls-1" x="175.66" y="144.91" width="12.44" height="24.56"/><rect class="cls-1" x="462.56" y="380.33" width="12.44" height="59.98"/><rect class="cls-1" x="275" y="380.33" width="12.44" height="59.98"/><rect class="cls-1" x="326.55" y="368.16" width="23.11" height="9.33"/><rect class="cls-1" x="326.55" y="398.71" width="23.11" height="9.33"/><rect class="cls-1" x="318.67" y="375.91" width="8.55" height="24.31"/><rect class="cls-1" x="348.65" y="375.91" width="8.55" height="24.31"/><rect class="cls-1" x="344.3" y="428.59" width="55.04" height="9.33"/><rect class="cls-1" x="399.17" y="418.16" width="10.89" height="10.89"/><rect class="cls-1" x="329.44" y="390.11" width="10.11" height="10.11"/><rect class="cls-1" x="336.88" y="382.67" width="10.11" height="10.11"/><rect class="cls-1" x="385.16" y="368.16" width="23.11" height="9.33"/><rect class="cls-1" x="385.16" y="398.71" width="23.11" height="9.33"/><rect class="cls-1" x="377.28" y="375.91" width="8.55" height="24.31"/><rect class="cls-1" x="407.25" y="375.91" width="8.55" height="24.31"/><rect class="cls-1" x="388.05" y="390.11" width="10.11" height="10.11"/><rect class="cls-1" x="395.49" y="382.67" width="10.11" height="10.11"/><rect class="cls-1" x="336.26" y="320.63" width="77.49" height="12.44"/><rect class="cls-1" x="311.78" y="332.52" width="24.47" height="12.44"/><rect class="cls-1" x="299.34" y="344.42" width="12.44" height="12.44"/><rect class="cls-1" x="286.89" y="356.31" width="12.44" height="24.56"/><rect class="cls-1" x="413.74" y="332.52" width="24.47" height="12.44"/><rect class="cls-1" x="438.22" y="344.42" width="12.44" height="12.44"/><rect class="cls-1" x="450.66" y="356.31" width="12.44" height="24.56"/><rect class="cls-1" x="336.26" y="487.56" width="77.49" height="12.44"/><rect class="cls-1" x="311.78" y="475.66" width="24.47" height="12.44"/><rect class="cls-1" x="299.34" y="463.77" width="12.44" height="12.44"/><rect class="cls-1" x="286.89" y="439.75" width="12.44" height="24.56"/><rect class="cls-1" x="413.74" y="475.66" width="24.47" height="12.44"/><rect class="cls-1" x="438.22" y="463.77" width="12.44" height="12.44"/><rect class="cls-1" x="450.66" y="439.75" width="12.44" height="24.56"/><rect class="cls-1" x="282.56" y="265.33" width="12.44" height="59.98"/><rect class="cls-1" x="95" y="265.33" width="12.44" height="59.98"/><rect class="cls-1" x="146.55" y="253.16" width="23.11" height="9.33"/><rect class="cls-1" x="146.55" y="283.71" width="23.11" height="9.33"/><rect class="cls-1" x="138.67" y="260.91" width="8.55" height="24.31"/><rect class="cls-1" x="168.65" y="260.91" width="8.55" height="24.31"/><rect class="cls-1" x="164.3" y="313.59" width="55.04" height="9.33"/><rect class="cls-1" x="219.17" y="303.16" width="10.89" height="10.89"/><rect class="cls-1" x="149.44" y="275.11" width="10.11" height="10.11"/><rect class="cls-1" x="156.88" y="267.67" width="10.11" height="10.11"/><rect class="cls-1" x="205.16" y="253.16" width="23.11" height="9.33"/><rect class="cls-1" x="205.16" y="283.71" width="23.11" height="9.33"/><rect class="cls-1" x="197.28" y="260.91" width="8.55" height="24.31"/><rect class="cls-1" x="227.25" y="260.91" width="8.55" height="24.31"/><rect class="cls-1" x="208.05" y="275.11" width="10.11" height="10.11"/><rect class="cls-1" x="215.49" y="267.67" width="10.11" height="10.11"/><rect class="cls-1" x="156.26" y="205.63" width="77.49" height="12.44"/><rect class="cls-1" x="131.78" y="217.52" width="24.47" height="12.44"/><rect class="cls-1" x="119.34" y="229.42" width="12.44" height="12.44"/><rect class="cls-1" x="106.89" y="241.31" width="12.44" height="24.56"/><rect class="cls-1" x="233.74" y="217.52" width="24.47" height="12.44"/><rect class="cls-1" x="258.22" y="229.42" width="12.44" height="12.44"/><rect class="cls-1" x="270.66" y="241.31" width="12.44" height="24.56"/><rect class="cls-1" x="156.26" y="372.56" width="77.49" height="12.44"/><rect class="cls-1" x="131.78" y="360.66" width="24.47" height="12.44"/><rect class="cls-1" x="119.34" y="348.77" width="12.44" height="12.44"/><rect class="cls-1" x="106.89" y="324.75" width="12.44" height="24.56"/><rect class="cls-1" x="233.74" y="360.66" width="24.47" height="12.44"/><rect class="cls-1" x="258.22" y="348.77" width="12.44" height="12.44"/><rect class="cls-1" x="270.66" y="324.75" width="12.44" height="24.56"/><rect class="cls-1" x="588.56" y="213.33" width="12.44" height="59.98"/><rect class="cls-1" x="401" y="213.33" width="12.44" height="59.98"/><rect class="cls-1" x="452.55" y="201.16" width="23.11" height="9.33"/><rect class="cls-1" x="452.55" y="231.71" width="23.11" height="9.33"/><rect class="cls-1" x="444.67" y="208.91" width="8.55" height="24.31"/><rect class="cls-1" x="474.65" y="208.91" width="8.55" height="24.31"/><rect class="cls-1" x="470.3" y="261.59" width="55.04" height="9.33"/><rect class="cls-1" x="525.17" y="251.16" width="10.89" height="10.89"/><rect class="cls-1" x="455.44" y="223.11" width="10.11" height="10.11"/><rect class="cls-1" x="462.88" y="215.67" width="10.11" height="10.11"/><rect class="cls-1" x="511.16" y="201.16" width="23.11" height="9.33"/><rect class="cls-1" x="511.16" y="231.71" width="23.11" height="9.33"/><rect class="cls-1" x="503.28" y="208.91" width="8.55" height="24.31"/><rect class="cls-1" x="533.25" y="208.91" width="8.55" height="24.31"/><rect class="cls-1" x="514.05" y="223.11" width="10.11" height="10.11"/><rect class="cls-1" x="521.49" y="215.67" width="10.11" height="10.11"/><rect class="cls-1" x="462.26" y="153.63" width="77.49" height="12.44"/><rect class="cls-1" x="437.78" y="165.52" width="24.47" height="12.44"/><rect class="cls-1" x="425.34" y="177.42" width="12.44" height="12.44"/><rect class="cls-1" x="412.89" y="189.31" width="12.44" height="24.56"/><rect class="cls-1" x="539.74" y="165.52" width="24.47" height="12.44"/><rect class="cls-1" x="564.22" y="177.42" width="12.44" height="12.44"/><rect class="cls-1" x="576.66" y="189.31" width="12.44" height="24.56"/><rect class="cls-1" x="462.26" y="320.56" width="77.49" height="12.44"/><rect class="cls-1" x="437.78" y="308.66" width="24.47" height="12.44"/><rect class="cls-1" x="425.34" y="296.77" width="12.44" height="12.44"/><rect class="cls-1" x="412.89" y="272.75" width="12.44" height="24.56"/><rect class="cls-1" x="539.74" y="308.66" width="24.47" height="12.44"/><rect class="cls-1" x="564.22" y="296.77" width="12.44" height="12.44"/><rect class="cls-1" x="576.66" y="272.75" width="12.44" height="24.56"/><rect class="cls-1" x="737.56" y="59.7" width="12.44" height="59.98"/><rect class="cls-1" x="550" y="59.7" width="12.44" height="59.98"/><rect class="cls-1" x="601.55" y="47.53" width="23.11" height="9.33"/><rect class="cls-1" x="601.55" y="78.08" width="23.11" height="9.33"/><rect class="cls-1" x="593.67" y="55.28" width="8.55" height="24.31"/><rect class="cls-1" x="623.65" y="55.28" width="8.55" height="24.31"/><rect class="cls-1" x="619.3" y="107.96" width="55.04" height="9.33"/><rect class="cls-1" x="674.17" y="97.53" width="10.89" height="10.89"/><rect class="cls-1" x="604.44" y="69.48" width="10.11" height="10.11"/><rect class="cls-1" x="611.88" y="62.04" width="10.11" height="10.11"/><rect class="cls-1" x="660.16" y="47.53" width="23.11" height="9.33"/><rect class="cls-1" x="660.16" y="78.08" width="23.11" height="9.33"/><rect class="cls-1" x="652.28" y="55.28" width="8.55" height="24.31"/><rect class="cls-1" x="682.25" y="55.28" width="8.55" height="24.31"/><rect class="cls-1" x="663.05" y="69.48" width="10.11" height="10.11"/><rect class="cls-1" x="670.49" y="62.04" width="10.11" height="10.11"/><rect class="cls-1" x="611.26" width="77.49" height="12.44"/><rect class="cls-1" x="586.78" y="11.89" width="24.47" height="12.44"/><rect class="cls-1" x="574.34" y="23.79" width="12.44" height="12.44"/><rect class="cls-1" x="561.89" y="35.68" width="12.44" height="24.56"/><rect class="cls-1" x="688.74" y="11.9" width="24.47" height="12.44"/><rect class="cls-1" x="713.22" y="23.79" width="12.44" height="12.44"/><rect class="cls-1" x="725.66" y="35.68" width="12.44" height="24.56"/><rect class="cls-1" x="611.26" y="166.93" width="77.49" height="12.44"/><rect class="cls-1" x="586.78" y="155.03" width="24.47" height="12.44"/><rect class="cls-1" x="574.34" y="143.14" width="12.44" height="12.44"/><rect class="cls-1" x="561.89" y="119.13" width="12.44" height="24.56"/><rect class="cls-1" x="688.74" y="155.03" width="24.47" height="12.44"/><rect class="cls-1" x="713.22" y="143.14" width="12.44" height="12.44"/><rect class="cls-1" x="725.66" y="119.13" width="12.44" height="24.56"/></svg>