<svg id="Layer_1" data-name="Layer 1" xmlns="http://www.w3.org/2000/svg" viewBox="0 0 550 500"><defs><style>.cls-1{fill:#231916;}</style></defs><title>Untitled-1</title><rect class="cls-1" x="71.64" y="355.07" width="71.97" height="14.93"/><rect class="cls-1" x="71.64" y="130" width="71.97" height="14.93"/><rect class="cls-1" x="147.01" y="191.86" width="11.2" height="27.73"/><rect class="cls-1" x="110.35" y="191.86" width="11.2" height="27.73"/><rect class="cls-1" x="119.74" y="182.41" width="29.18" height="10.27"/><rect class="cls-1" x="119.74" y="218.37" width="29.18" height="10.27"/><rect class="cls-1" x="74.49" y="213.16" width="11.2" height="66.05"/><rect class="cls-1" x="85.14" y="279" width="13.07" height="13.07"/><rect class="cls-1" x="119.74" y="195.33" width="12.13" height="12.13"/><rect class="cls-1" x="128.67" y="204.26" width="12.13" height="12.13"/><rect class="cls-1" x="147.01" y="262.19" width="11.2" height="27.73"/><rect class="cls-1" x="110.35" y="262.19" width="11.2" height="27.73"/><rect class="cls-1" x="119.74" y="252.74" width="29.18" height="10.27"/><rect class="cls-1" x="119.74" y="288.7" width="29.18" height="10.27"/><rect class="cls-1" x="119.74" y="265.66" width="12.13" height="12.13"/><rect class="cls-1" x="128.67" y="274.59" width="12.13" height="12.13"/><rect class="cls-1" x="200.31" y="203.51" width="14.93" height="92.99"/><rect class="cls-1" x="186.04" y="174.14" width="14.93" height="29.37"/><rect class="cls-1" x="171.77" y="159.21" width="14.93" height="14.93"/><rect class="cls-1" x="142.95" y="144.27" width="29.47" height="14.93"/><rect class="cls-1" x="186.04" y="296.49" width="14.93" height="29.37"/><rect class="cls-1" x="171.77" y="325.86" width="14.93" height="14.93"/><rect class="cls-1" x="142.95" y="340.8" width="29.47" height="14.93"/><rect class="cls-1" y="203.51" width="14.93" height="92.99"/><rect class="cls-1" x="14.27" y="174.14" width="14.93" height="29.37"/><rect class="cls-1" x="28.55" y="159.21" width="14.93" height="14.93"/><rect class="cls-1" x="42.82" y="144.27" width="29.47" height="14.93"/><rect class="cls-1" x="14.27" y="296.49" width="14.93" height="29.37"/><rect class="cls-1" x="28.55" y="325.86" width="14.93" height="14.93"/><rect class="cls-1" x="42.82" y="340.8" width="29.47" height="14.93"/><rect class="cls-1" x="406.39" y="130" width="71.97" height="14.93"/><rect class="cls-1" x="406.39" y="355.07" width="71.97" height="14.93"/><rect class="cls-1" x="391.79" y="280.41" width="11.2" height="27.73"/><rect class="cls-1" x="428.45" y="280.41" width="11.2" height="27.73"/><rect class="cls-1" x="401.09" y="307.33" width="29.18" height="10.27"/><rect class="cls-1" x="401.09" y="271.36" width="29.18" height="10.27"/><rect class="cls-1" x="464.31" y="220.8" width="11.2" height="66.05"/><rect class="cls-1" x="451.79" y="207.93" width="13.07" height="13.07"/><rect class="cls-1" x="418.13" y="292.54" width="12.13" height="12.13"/><rect class="cls-1" x="409.2" y="283.61" width="12.13" height="12.13"/><rect class="cls-1" x="391.79" y="210.08" width="11.2" height="27.73"/><rect class="cls-1" x="428.45" y="210.08" width="11.2" height="27.73"/><rect class="cls-1" x="401.09" y="237" width="29.18" height="10.27"/><rect class="cls-1" x="401.09" y="201.03" width="29.18" height="10.27"/><rect class="cls-1" x="418.13" y="222.21" width="12.13" height="12.13"/><rect class="cls-1" x="409.2" y="213.28" width="12.13" height="12.13"/><rect class="cls-1" x="334.75" y="203.51" width="14.93" height="92.99"/><rect class="cls-1" x="349.03" y="296.49" width="14.93" height="29.37"/><rect class="cls-1" x="363.3" y="325.86" width="14.93" height="14.93"/><rect class="cls-1" x="377.57" y="340.79" width="29.47" height="14.93"/><rect class="cls-1" x="349.03" y="174.14" width="14.93" height="29.37"/><rect class="cls-1" x="363.3" y="159.2" width="14.93" height="14.93"/><rect class="cls-1" x="377.57" y="144.27" width="29.47" height="14.93"/><rect class="cls-1" x="535.07" y="203.51" width="14.93" height="92.99"/><rect class="cls-1" x="520.79" y="296.49" width="14.93" height="29.37"/><rect class="cls-1" x="506.52" y="325.86" width="14.93" height="14.93"/><rect class="cls-1" x="477.7" y="340.79" width="29.47" height="14.93"/><rect class="cls-1" x="520.79" y="174.14" width="14.93" height="29.37"/><rect class="cls-1" x="506.52" y="159.2" width="14.93" height="14.93"/><rect class="cls-1" x="477.7" y="144.27" width="29.47" height="14.93"/><rect class="cls-1" x="406.39" y="130" width="71.97" height="14.93"/><rect class="cls-1" x="406.39" y="355.07" width="71.97" height="14.93"/><rect class="cls-1" x="391.79" y="280.41" width="11.2" height="27.73"/><rect class="cls-1" x="428.45" y="280.41" width="11.2" height="27.73"/><rect class="cls-1" x="401.09" y="307.33" width="29.18" height="10.27"/><rect class="cls-1" x="401.09" y="271.36" width="29.18" height="10.27"/><rect class="cls-1" x="464.31" y="220.8" width="11.2" height="66.05"/><rect class="cls-1" x="451.79" y="207.93" width="13.07" height="13.07"/><rect class="cls-1" x="418.13" y="292.54" width="12.13" height="12.13"/><rect class="cls-1" x="409.2" y="283.61" width="12.13" height="12.13"/><rect class="cls-1" x="391.79" y="210.08" width="11.2" height="27.73"/><rect class="cls-1" x="428.45" y="210.08" width="11.2" height="27.73"/><rect class="cls-1" x="401.09" y="237" width="29.18" height="10.27"/><rect class="cls-1" x="401.09" y="201.03" width="29.18" height="10.27"/><rect class="cls-1" x="418.13" y="222.21" width="12.13" height="12.13"/><rect class="cls-1" x="409.2" y="213.28" width="12.13" height="12.13"/><rect class="cls-1" x="334.75" y="203.51" width="14.93" height="92.99"/><rect class="cls-1" x="349.03" y="296.49" width="14.93" height="29.37"/><rect class="cls-1" x="363.3" y="325.86" width="14.93" height="14.93"/><rect class="cls-1" x="377.57" y="340.79" width="29.47" height="14.93"/><rect class="cls-1" x="349.03" y="174.14" width="14.93" height="29.37"/><rect class="cls-1" x="363.3" y="159.2" width="14.93" height="14.93"/><rect class="cls-1" x="377.57" y="144.27" width="29.47" height="14.93"/><rect class="cls-1" x="535.07" y="203.51" width="14.93" height="92.99"/><rect class="cls-1" x="520.79" y="296.49" width="14.93" height="29.37"/><rect class="cls-1" x="506.52" y="325.86" width="14.93" height="14.93"/><rect class="cls-1" x="477.7" y="340.79" width="29.47" height="14.93"/><rect class="cls-1" x="520.79" y="174.14" width="14.93" height="29.37"/><rect class="cls-1" x="506.52" y="159.2" width="14.93" height="14.93"/><rect class="cls-1" x="477.7" y="144.27" width="29.47" height="14.93"/><rect class="cls-1" x="380.07" y="71.64" width="14.93" height="71.97"/><rect class="cls-1" x="155" y="71.64" width="14.93" height="71.97"/><rect class="cls-1" x="216.86" y="57.04" width="27.73" height="11.2"/><rect class="cls-1" x="216.86" y="93.7" width="27.73" height="11.2"/><rect class="cls-1" x="207.41" y="66.33" width="10.27" height="29.18"/><rect class="cls-1" x="243.37" y="66.33" width="10.27" height="29.18"/><rect class="cls-1" x="238.16" y="129.56" width="66.05" height="11.2"/><rect class="cls-1" x="304" y="117.04" width="13.07" height="13.07"/><rect class="cls-1" x="220.33" y="83.38" width="12.13" height="12.13"/><rect class="cls-1" x="229.26" y="74.45" width="12.13" height="12.13"/><rect class="cls-1" x="287.19" y="57.04" width="27.73" height="11.2"/><rect class="cls-1" x="287.19" y="93.7" width="27.73" height="11.2"/><rect class="cls-1" x="277.74" y="66.33" width="10.27" height="29.18"/><rect class="cls-1" x="313.7" y="66.33" width="10.27" height="29.18"/><rect class="cls-1" x="290.66" y="83.38" width="12.13" height="12.13"/><rect class="cls-1" x="299.59" y="74.45" width="12.13" height="12.13"/><rect class="cls-1" x="228.51" width="92.99" height="14.93"/><rect class="cls-1" x="199.14" y="14.27" width="29.37" height="14.93"/><rect class="cls-1" x="184.21" y="28.55" width="14.93" height="14.93"/><rect class="cls-1" x="169.27" y="42.82" width="14.93" height="29.47"/><rect class="cls-1" x="321.49" y="14.27" width="29.37" height="14.93"/><rect class="cls-1" x="350.86" y="28.55" width="14.93" height="14.93"/><rect class="cls-1" x="365.8" y="42.82" width="14.93" height="29.47"/><rect class="cls-1" x="228.51" y="200.31" width="92.99" height="14.93"/><rect class="cls-1" x="199.14" y="186.04" width="29.37" height="14.93"/><rect class="cls-1" x="184.21" y="171.77" width="14.93" height="14.93"/><rect class="cls-1" x="169.27" y="142.95" width="14.93" height="29.47"/><rect class="cls-1" x="321.49" y="186.04" width="29.37" height="14.93"/><rect class="cls-1" x="350.86" y="171.77" width="14.93" height="14.93"/><rect class="cls-1" x="365.8" y="142.95" width="14.93" height="29.47"/><rect class="cls-1" x="155" y="356.39" width="14.93" height="71.97"/><rect class="cls-1" x="380.07" y="356.39" width="14.93" height="71.97"/><rect class="cls-1" x="305.41" y="431.76" width="27.73" height="11.2"/><rect class="cls-1" x="305.41" y="395.1" width="27.73" height="11.2"/><rect class="cls-1" x="332.33" y="404.49" width="10.27" height="29.18"/><rect class="cls-1" x="296.36" y="404.49" width="10.27" height="29.18"/><rect class="cls-1" x="245.8" y="359.24" width="66.05" height="11.2"/><rect class="cls-1" x="232.93" y="369.9" width="13.07" height="13.07"/><rect class="cls-1" x="317.54" y="404.49" width="12.13" height="12.13"/><rect class="cls-1" x="308.61" y="413.42" width="12.13" height="12.13"/><rect class="cls-1" x="235.08" y="431.76" width="27.73" height="11.2"/><rect class="cls-1" x="235.08" y="395.1" width="27.73" height="11.2"/><rect class="cls-1" x="262" y="404.49" width="10.27" height="29.18"/><rect class="cls-1" x="226.03" y="404.49" width="10.27" height="29.18"/><rect class="cls-1" x="247.21" y="404.49" width="12.13" height="12.13"/><rect class="cls-1" x="238.28" y="413.42" width="12.13" height="12.13"/><rect class="cls-1" x="228.51" y="485.07" width="92.99" height="14.93"/><rect class="cls-1" x="321.49" y="470.79" width="29.37" height="14.93"/><rect class="cls-1" x="350.86" y="456.52" width="14.93" height="14.93"/><rect class="cls-1" x="365.79" y="427.7" width="14.93" height="29.47"/><rect class="cls-1" x="199.14" y="470.79" width="29.37" height="14.93"/><rect class="cls-1" x="184.2" y="456.52" width="14.93" height="14.93"/><rect class="cls-1" x="169.27" y="427.7" width="14.93" height="29.47"/><rect class="cls-1" x="228.51" y="284.75" width="92.99" height="14.93"/><rect class="cls-1" x="321.49" y="299.03" width="29.37" height="14.93"/><rect class="cls-1" x="350.86" y="313.3" width="14.93" height="14.93"/><rect class="cls-1" x="365.79" y="327.57" width="14.93" height="29.47"/><rect class="cls-1" x="199.14" y="299.03" width="29.37" height="14.93"/><rect class="cls-1" x="184.2" y="313.3" width="14.93" height="14.93"/><rect class="cls-1" x="169.27" y="327.57" width="14.93" height="29.47"/></svg>