<svg id="Layer_1" data-name="Layer 1" xmlns="http://www.w3.org/2000/svg" viewBox="0 0 650 500"><defs><style>.cls-1{fill:#231916;}</style></defs><title>Untitled-1</title><rect class="cls-1" x="187.56" y="380.33" width="12.44" height="59.98"/><rect class="cls-1" y="380.33" width="12.44" height="59.98"/><rect class="cls-1" x="51.55" y="368.16" width="23.11" height="9.33"/><rect class="cls-1" x="51.55" y="398.71" width="23.11" height="9.33"/><rect class="cls-1" x="43.67" y="375.91" width="8.55" height="24.31"/><rect class="cls-1" x="73.65" y="375.91" width="8.55" height="24.31"/><rect class="cls-1" x="69.3" y="428.59" width="55.04" height="9.33"/><rect class="cls-1" x="124.17" y="418.16" width="10.89" height="10.89"/><rect class="cls-1" x="54.44" y="390.11" width="10.11" height="10.11"/><rect class="cls-1" x="61.88" y="382.67" width="10.11" height="10.11"/><rect class="cls-1" x="110.16" y="368.16" width="23.11" height="9.33"/><rect class="cls-1" x="110.16" y="398.71" width="23.11" height="9.33"/><rect class="cls-1" x="102.28" y="375.91" width="8.55" height="24.31"/><rect class="cls-1" x="132.25" y="375.91" width="8.55" height="24.31"/><rect class="cls-1" x="113.05" y="390.11" width="10.11" height="10.11"/><rect class="cls-1" x="120.49" y="382.67" width="10.11" height="10.11"/><rect class="cls-1" x="61.26" y="320.63" width="77.49" height="12.44"/><rect class="cls-1" x="36.78" y="332.52" width="24.47" height="12.44"/><rect class="cls-1" x="24.34" y="344.42" width="12.44" height="12.44"/><rect class="cls-1" x="11.89" y="356.31" width="12.44" height="24.56"/><rect class="cls-1" x="138.74" y="332.52" width="24.47" height="12.44"/><rect class="cls-1" x="163.22" y="344.42" width="12.44" height="12.44"/><rect class="cls-1" x="175.66" y="356.31" width="12.44" height="24.56"/><rect class="cls-1" x="61.26" y="487.56" width="77.49" height="12.44"/><rect class="cls-1" x="36.78" y="475.66" width="24.47" height="12.44"/><rect class="cls-1" x="24.34" y="463.77" width="12.44" height="12.44"/><rect class="cls-1" x="11.89" y="439.75" width="12.44" height="24.56"/><rect class="cls-1" x="138.74" y="475.66" width="24.47" height="12.44"/><rect class="cls-1" x="163.22" y="463.77" width="12.44" height="12.44"/><rect class="cls-1" x="175.66" y="439.75" width="12.44" height="24.56"/><rect class="cls-1" x="412.56" y="380.33" width="12.44" height="59.98"/><rect class="cls-1" x="225" y="380.33" width="12.44" height="59.98"/><rect class="cls-1" x="276.55" y="368.16" width="23.11" height="9.33"/><rect class="cls-1" x="276.55" y="398.71" width="23.11" height="9.33"/><rect class="cls-1" x="268.67" y="375.91" width="8.55" height="24.31"/><rect class="cls-1" x="298.65" y="375.91" width="8.55" height="24.31"/><rect class="cls-1" x="294.3" y="428.59" width="55.04" height="9.33"/><rect class="cls-1" x="349.17" y="418.16" width="10.89" height="10.89"/><rect class="cls-1" x="279.44" y="390.11" width="10.11" height="10.11"/><rect class="cls-1" x="286.88" y="382.67" width="10.11" height="10.11"/><rect class="cls-1" x="335.16" y="368.16" width="23.11" height="9.33"/><rect class="cls-1" x="335.16" y="398.71" width="23.11" height="9.33"/><rect class="cls-1" x="327.28" y="375.91" width="8.55" height="24.31"/><rect class="cls-1" x="357.25" y="375.91" width="8.55" height="24.31"/><rect class="cls-1" x="338.05" y="390.11" width="10.11" height="10.11"/><rect class="cls-1" x="345.49" y="382.67" width="10.11" height="10.11"/><rect class="cls-1" x="286.26" y="320.63" width="77.49" height="12.44"/><rect class="cls-1" x="261.78" y="332.52" width="24.47" height="12.44"/><rect class="cls-1" x="249.34" y="344.42" width="12.44" height="12.44"/><rect class="cls-1" x="236.89" y="356.31" width="12.44" height="24.56"/><rect class="cls-1" x="363.74" y="332.52" width="24.47" height="12.44"/><rect class="cls-1" x="388.22" y="344.42" width="12.44" height="12.44"/><rect class="cls-1" x="400.66" y="356.31" width="12.44" height="24.56"/><rect class="cls-1" x="286.26" y="487.56" width="77.49" height="12.44"/><rect class="cls-1" x="261.78" y="475.66" width="24.47" height="12.44"/><rect class="cls-1" x="249.34" y="463.77" width="12.44" height="12.44"/><rect class="cls-1" x="236.89" y="439.75" width="12.44" height="24.56"/><rect class="cls-1" x="363.74" y="475.66" width="24.47" height="12.44"/><rect class="cls-1" x="388.22" y="463.77" width="12.44" height="12.44"/><rect class="cls-1" x="400.66" y="439.75" width="12.44" height="24.56"/><rect class="cls-1" x="637.56" y="380.33" width="12.44" height="59.98"/><rect class="cls-1" x="450" y="380.33" width="12.44" height="59.98"/><rect class="cls-1" x="501.55" y="368.16" width="23.11" height="9.33"/><rect class="cls-1" x="501.55" y="398.71" width="23.11" height="9.33"/><rect class="cls-1" x="493.67" y="375.91" width="8.55" height="24.31"/><rect class="cls-1" x="523.65" y="375.91" width="8.55" height="24.31"/><rect class="cls-1" x="519.3" y="428.59" width="55.04" height="9.33"/><rect class="cls-1" x="574.17" y="418.16" width="10.89" height="10.89"/><rect class="cls-1" x="504.44" y="390.11" width="10.11" height="10.11"/><rect class="cls-1" x="511.88" y="382.67" width="10.11" height="10.11"/><rect class="cls-1" x="560.16" y="368.16" width="23.11" height="9.33"/><rect class="cls-1" x="560.16" y="398.71" width="23.11" height="9.33"/><rect class="cls-1" x="552.28" y="375.91" width="8.55" height="24.31"/><rect class="cls-1" x="582.25" y="375.91" width="8.55" height="24.31"/><rect class="cls-1" x="563.05" y="390.11" width="10.11" height="10.11"/><rect class="cls-1" x="570.49" y="382.67" width="10.11" height="10.11"/><rect class="cls-1" x="511.26" y="320.63" width="77.49" height="12.44"/><rect class="cls-1" x="486.78" y="332.52" width="24.47" height="12.44"/><rect class="cls-1" x="474.34" y="344.42" width="12.44" height="12.44"/><rect class="cls-1" x="461.89" y="356.31" width="12.44" height="24.56"/><rect class="cls-1" x="588.74" y="332.52" width="24.47" height="12.44"/><rect class="cls-1" x="613.22" y="344.42" width="12.44" height="12.44"/><rect class="cls-1" x="625.66" y="356.31" width="12.44" height="24.56"/><rect class="cls-1" x="511.26" y="487.56" width="77.49" height="12.44"/><rect class="cls-1" x="486.78" y="475.66" width="24.47" height="12.44"/><rect class="cls-1" x="474.34" y="463.77" width="12.44" height="12.44"/><rect class="cls-1" x="461.89" y="439.75" width="12.44" height="24.56"/><rect class="cls-1" x="588.74" y="475.66" width="24.47" height="12.44"/><rect class="cls-1" x="613.22" y="463.77" width="12.44" height="12.44"/><rect class="cls-1" x="625.66" y="439.75" width="12.44" height="24.56"/><rect class="cls-1" x="300.56" y="220.01" width="12.44" height="59.98"/><rect class="cls-1" x="113" y="220.01" width="12.44" height="59.98"/><rect class="cls-1" x="164.55" y="207.85" width="23.11" height="9.33"/><rect class="cls-1" x="164.55" y="238.4" width="23.11" height="9.33"/><rect class="cls-1" x="156.67" y="215.59" width="8.55" height="24.31"/><rect class="cls-1" x="186.65" y="215.59" width="8.55" height="24.31"/><rect class="cls-1" x="182.3" y="268.28" width="55.04" height="9.33"/><rect class="cls-1" x="237.17" y="257.85" width="10.89" height="10.89"/><rect class="cls-1" x="167.44" y="229.8" width="10.11" height="10.11"/><rect class="cls-1" x="174.88" y="222.35" width="10.11" height="10.11"/><rect class="cls-1" x="223.16" y="207.85" width="23.11" height="9.33"/><rect class="cls-1" x="223.16" y="238.4" width="23.11" height="9.33"/><rect class="cls-1" x="215.28" y="215.59" width="8.55" height="24.31"/><rect class="cls-1" x="245.25" y="215.59" width="8.55" height="24.31"/><rect class="cls-1" x="226.05" y="229.8" width="10.11" height="10.11"/><rect class="cls-1" x="233.49" y="222.35" width="10.11" height="10.11"/><rect class="cls-1" x="174.26" y="160.31" width="77.49" height="12.44"/><rect class="cls-1" x="149.78" y="172.21" width="24.47" height="12.44"/><rect class="cls-1" x="137.34" y="184.1" width="12.44" height="12.44"/><rect class="cls-1" x="124.89" y="196" width="12.44" height="24.56"/><rect class="cls-1" x="251.74" y="172.21" width="24.47" height="12.44"/><rect class="cls-1" x="276.22" y="184.1" width="12.44" height="12.44"/><rect class="cls-1" x="288.66" y="196" width="12.44" height="24.56"/><rect class="cls-1" x="174.26" y="327.24" width="77.49" height="12.44"/><rect class="cls-1" x="149.78" y="315.35" width="24.47" height="12.44"/><rect class="cls-1" x="137.34" y="303.45" width="12.44" height="12.44"/><rect class="cls-1" x="124.89" y="279.44" width="12.44" height="24.56"/><rect class="cls-1" x="251.74" y="315.35" width="24.47" height="12.44"/><rect class="cls-1" x="276.22" y="303.45" width="12.44" height="12.44"/><rect class="cls-1" x="288.66" y="279.44" width="12.44" height="24.56"/><rect class="cls-1" x="524.56" y="220.01" width="12.44" height="59.98"/><rect class="cls-1" x="337" y="220.01" width="12.44" height="59.98"/><rect class="cls-1" x="388.55" y="207.85" width="23.11" height="9.33"/><rect class="cls-1" x="388.55" y="238.4" width="23.11" height="9.33"/><rect class="cls-1" x="380.67" y="215.59" width="8.55" height="24.31"/><rect class="cls-1" x="410.65" y="215.59" width="8.55" height="24.31"/><rect class="cls-1" x="406.3" y="268.28" width="55.04" height="9.33"/><rect class="cls-1" x="461.17" y="257.85" width="10.89" height="10.89"/><rect class="cls-1" x="391.44" y="229.8" width="10.11" height="10.11"/><rect class="cls-1" x="398.88" y="222.35" width="10.11" height="10.11"/><rect class="cls-1" x="447.16" y="207.85" width="23.11" height="9.33"/><rect class="cls-1" x="447.16" y="238.4" width="23.11" height="9.33"/><rect class="cls-1" x="439.28" y="215.59" width="8.55" height="24.31"/><rect class="cls-1" x="469.25" y="215.59" width="8.55" height="24.31"/><rect class="cls-1" x="450.05" y="229.8" width="10.11" height="10.11"/><rect class="cls-1" x="457.49" y="222.35" width="10.11" height="10.11"/><rect class="cls-1" x="398.26" y="160.31" width="77.49" height="12.44"/><rect class="cls-1" x="373.78" y="172.21" width="24.47" height="12.44"/><rect class="cls-1" x="361.34" y="184.1" width="12.44" height="12.44"/><rect class="cls-1" x="348.89" y="196" width="12.44" height="24.56"/><rect class="cls-1" x="475.74" y="172.21" width="24.47" height="12.44"/><rect class="cls-1" x="500.22" y="184.1" width="12.44" height="12.44"/><rect class="cls-1" x="512.66" y="196" width="12.44" height="24.56"/><rect class="cls-1" x="398.26" y="327.24" width="77.49" height="12.44"/><rect class="cls-1" x="373.78" y="315.35" width="24.47" height="12.44"/><rect class="cls-1" x="361.34" y="303.45" width="12.44" height="12.44"/><rect class="cls-1" x="348.89" y="279.44" width="12.44" height="24.56"/><rect class="cls-1" x="475.74" y="315.35" width="24.47" height="12.44"/><rect class="cls-1" x="500.22" y="303.45" width="12.44" height="12.44"/><rect class="cls-1" x="512.66" y="279.44" width="12.44" height="24.56"/><rect class="cls-1" x="412.56" y="59.7" width="12.44" height="59.98"/><rect class="cls-1" x="225" y="59.7" width="12.44" height="59.98"/><rect class="cls-1" x="276.55" y="47.53" width="23.11" height="9.33"/><rect class="cls-1" x="276.55" y="78.08" width="23.11" height="9.33"/><rect class="cls-1" x="268.67" y="55.28" width="8.55" height="24.31"/><rect class="cls-1" x="298.65" y="55.28" width="8.55" height="24.31"/><rect class="cls-1" x="294.3" y="107.96" width="55.04" height="9.33"/><rect class="cls-1" x="349.17" y="97.53" width="10.89" height="10.89"/><rect class="cls-1" x="279.44" y="69.48" width="10.11" height="10.11"/><rect class="cls-1" x="286.88" y="62.04" width="10.11" height="10.11"/><rect class="cls-1" x="335.16" y="47.53" width="23.11" height="9.33"/><rect class="cls-1" x="335.16" y="78.08" width="23.11" height="9.33"/><rect class="cls-1" x="327.28" y="55.28" width="8.55" height="24.31"/><rect class="cls-1" x="357.25" y="55.28" width="8.55" height="24.31"/><rect class="cls-1" x="338.05" y="69.48" width="10.11" height="10.11"/><rect class="cls-1" x="345.49" y="62.04" width="10.11" height="10.11"/><rect class="cls-1" x="286.26" width="77.49" height="12.44"/><rect class="cls-1" x="261.78" y="11.89" width="24.47" height="12.44"/><rect class="cls-1" x="249.34" y="23.79" width="12.44" height="12.44"/><rect class="cls-1" x="236.89" y="35.68" width="12.44" height="24.56"/><rect class="cls-1" x="363.74" y="11.9" width="24.47" height="12.44"/><rect class="cls-1" x="388.22" y="23.79" width="12.44" height="12.44"/><rect class="cls-1" x="400.66" y="35.68" width="12.44" height="24.56"/><rect class="cls-1" x="286.26" y="166.93" width="77.49" height="12.44"/><rect class="cls-1" x="261.78" y="155.03" width="24.47" height="12.44"/><rect class="cls-1" x="249.34" y="143.14" width="12.44" height="12.44"/><rect class="cls-1" x="236.89" y="119.13" width="12.44" height="24.56"/><rect class="cls-1" x="363.74" y="155.03" width="24.47" height="12.44"/><rect class="cls-1" x="388.22" y="143.14" width="12.44" height="12.44"/><rect class="cls-1" x="400.66" y="119.13" width="12.44" height="24.56"/></svg>