<svg id="Layer_1" data-name="Layer 1" xmlns="http://www.w3.org/2000/svg" viewBox="0 0 500 500"><defs><style>.cls-1{fill:#231916;}</style></defs><title>Untitled-1</title><rect class="cls-1" x="468.89" y="175.03" width="31.11" height="149.94"/><rect class="cls-1" y="175.03" width="31.11" height="149.94"/><rect class="cls-1" x="128.87" y="144.61" width="57.77" height="23.33"/><rect class="cls-1" x="128.87" y="221" width="57.77" height="23.33"/><rect class="cls-1" x="109.18" y="163.98" width="21.39" height="60.79"/><rect class="cls-1" x="184.11" y="163.98" width="21.39" height="60.79"/><rect class="cls-1" x="173.24" y="295.69" width="137.6" height="23.33"/><rect class="cls-1" x="310.42" y="269.62" width="27.22" height="27.22"/><rect class="cls-1" x="136.11" y="199.49" width="25.28" height="25.28"/><rect class="cls-1" x="154.71" y="180.89" width="25.28" height="25.28"/><rect class="cls-1" x="275.39" y="144.61" width="57.77" height="23.33"/><rect class="cls-1" x="275.39" y="221" width="57.77" height="23.33"/><rect class="cls-1" x="255.7" y="163.98" width="21.39" height="60.79"/><rect class="cls-1" x="330.63" y="163.98" width="21.39" height="60.79"/><rect class="cls-1" x="282.63" y="199.49" width="25.28" height="25.28"/><rect class="cls-1" x="301.23" y="180.89" width="25.28" height="25.28"/><rect class="cls-1" x="153.14" y="25.78" width="193.72" height="31.11"/><rect class="cls-1" x="91.96" y="55.52" width="61.19" height="31.11"/><rect class="cls-1" x="60.85" y="85.26" width="31.11" height="31.11"/><rect class="cls-1" x="29.74" y="115" width="31.11" height="61.41"/><rect class="cls-1" x="346.86" y="55.52" width="61.19" height="31.11"/><rect class="cls-1" x="408.05" y="85.26" width="31.11" height="31.11"/><rect class="cls-1" x="439.16" y="115" width="31.11" height="61.4"/><rect class="cls-1" x="153.14" y="443.11" width="193.72" height="31.11"/><rect class="cls-1" x="91.96" y="413.37" width="61.19" height="31.11"/><rect class="cls-1" x="60.85" y="383.63" width="31.11" height="31.11"/><rect class="cls-1" x="29.74" y="323.6" width="31.11" height="61.4"/><rect class="cls-1" x="346.86" y="413.37" width="61.19" height="31.11"/><rect class="cls-1" x="408.05" y="383.63" width="31.11" height="31.11"/><rect class="cls-1" x="439.16" y="323.6" width="31.11" height="61.4"/></svg>